# xmcd CD database file
#
# Track frame offsets:
#	150
#	23958
#	39147
#	57081
#	83371
#	101005
#	119897
#	162741
#	187362
#	205775
#	231824
#	247068
#	264596
#
# Disc length: 3799 seconds
#
# Revision: 0
# Processed by: cddbd v1.5.2PL0 Copyright (c) Steve Scherf et al.
# Submitted via: CDex 1.70beta2
#
DISCID=b60ed50d
DTITLE=Jay Ottaway - Jay Ottaway Band Live in Europe
DYEAR=2015
DGENRE=Blues
TTITLE0=Going down the Road
TTITLE1=All This Rain
TTITLE2=Blessings in Disguise
TTITLE3=Carry On
TTITLE4=Old Messiah
TTITLE5=Ringing through My Head
TTITLE6=Drunken Hearted Woman
TTITLE7=The Weight
TTITLE8=Dirty Moon on the Risin'
TTITLE9=One Man's Coming
TTITLE10=Right before Your Eyes
TTITLE11=Cry Me A River
TTITLE12=Deal
EXTD=YEAR: 2015
EXTT0=
EXTT1=
EXTT2=
EXTT3=
EXTT4=
EXTT5=
EXTT6=
EXTT7=
EXTT8=
EXTT9=
EXTT10=
EXTT11=
EXTT12=
PLAYORDER=
